# xmcd
#
# Track frame offsets:
#	150
#	17641
#	36976
#	55307
#	71531
#	89194
#	104641
#	118904
#	130882
#	145401
#	163314
#	177150
#	191664
#	210692
#	225077
#	243990
#	261374
#	274064
#	288128
#	307375
#	325199
#	342759
#
# Disc length: 4787 seconds
#
# Revision: 1
# Processed by: cddbd v1.5.2PL0 Copyright (c) Steve Scherf et al.
# Submitted via: audiograbber 1.83.01
#
DISCID=5912b116
DTITLE=Steve Wiley - Demos
DYEAR=2011
DGENRE=Demo
TTITLE0=Don't Blame The Woman
TTITLE1=Heart Can Only Love (R&B version)
TTITLE2=Passion
TTITLE3=Stop Thinking About Her
TTITLE4=Sweetbriar Woman
TTITLE5=Long Lost Love (Portland Demo)
TTITLE6=Nobody But My Baby
TTITLE7=Talk With Me
TTITLE8=The Right Track
TTITLE9=A Question of Love
TTITLE10=All I See is You
TTITLE11=Live Your Life
TTITLE12=A Song For Susan (1969)
TTITLE13=Interlude (1970)
TTITLE14=Blues in F# (1970)
TTITLE15=Wise Up Mister
TTITLE16=Fantasies of Love
TTITLE17=Southern Shores (1st Demo)
TTITLE18=Long Lost Love (LA Demo)
TTITLE19=Heart Can Only Love (Pop Version)
TTITLE20=Don't Blame The Woman (Instrumental Backing Track)
TTITLE21=Stop Thinking About Her (Instrumental Backing Track)
EXTD=
EXTT0=
EXTT1=
EXTT2=
EXTT3=
EXTT4=
EXTT5=
EXTT6=
EXTT7=
EXTT8=
EXTT9=
EXTT10=
EXTT11=
EXTT12=
EXTT13=
EXTT14=
EXTT15=
EXTT16=
EXTT17=
EXTT18=
EXTT19=
EXTT20=
EXTT21=
PLAYORDER=
